<?xml version="1.0" encoding="UTF-8" standalone="no"?>
<!-- Created with Inkscape (http://www.inkscape.org/) -->

<svg
   width="1008"
   height="1680"
   viewBox="0 0 63 105"
   version="1.1"
   id="svg5"
   xml:space="preserve"
   inkscape:version="1.2.2 (b0a8486541, 2022-12-01)"
   sodipodi:docname="2055-flower-punctuation-mark.svg"
   xmlns:inkscape="http://www.inkscape.org/namespaces/inkscape"
   xmlns:sodipodi="http://sodipodi.sourceforge.net/DTD/sodipodi-0.dtd"
   xmlns="http://www.w3.org/2000/svg"
   xmlns:svg="http://www.w3.org/2000/svg">
  <sodipodi:namedview
   id="namedview7"
   pagecolor="#ffffff"
   bordercolor="#666666"
   borderopacity="1.0"
   inkscape:showpageshadow="2"
   inkscape:pageopacity="0.0"
   inkscape:pagecheckerboard="0"
   inkscape:deskcolor="#d1d1d1"
   inkscape:document-units="px"
   showgrid="false"
   inkscape:zoom="1"
   inkscape:cx="506"
   inkscape:cy="810"
   inkscape:window-width="1908"
   inkscape:window-height="1017"
   inkscape:window-x="1128"
   inkscape:window-y="418"
   inkscape:window-maximized="1"
   inkscape:current-layer="layer1"
   showguides="false"
   inkscape:lockguides="false">
    <inkscape:grid
   type="xygrid"
   id="grid1382"
   spacingx="0.125"
   spacingy="0.125"
   empspacing="12"
   originx="0"
   originy="0"
   units="px"
   visible="true" />
    <sodipodi:guide
   position="0,21"
   orientation="0,1"
   id="guide4"
   inkscape:locked="false"
   inkscape:label="baseline"
   inkscape:color="rgb(0,134,229)" />
    <sodipodi:guide
   position="0,24"
   orientation="0,-1"
   id="guide5"
   inkscape:locked="false" />
    <sodipodi:guide
   position="0,27"
   orientation="0,-1"
   id="guide6"
   inkscape:locked="false" />
    <sodipodi:guide
   position="0,87"
   orientation="0,1"
   id="guide7"
   inkscape:locked="false"
   inkscape:label="capheight"
   inkscape:color="rgb(0,134,229)" />
    <sodipodi:guide
   position="0,84"
   orientation="0,1"
   id="guide8"
   inkscape:locked="false"
   inkscape:label="exaccentcenter"
   inkscape:color="rgb(0,134,229)" />
    <sodipodi:guide
   position="0,81"
   orientation="0,-1"
   id="guide9"
   inkscape:locked="false" />
    <sodipodi:guide
   position="0,68.25"
   orientation="0,1"
   id="guide10"
   inkscape:locked="false"
   inkscape:label="exheight"
   inkscape:color="rgb(0,134,229)" />
    <sodipodi:guide
   position="0,65.25"
   orientation="0,-1"
   id="guide11"
   inkscape:locked="false" />
    <sodipodi:guide
   position="0,62.25"
   orientation="0,-1"
   id="guide12"
   inkscape:locked="false" />
    <sodipodi:guide
   position="0,66.5"
   orientation="0,1"
   id="guide13"
   inkscape:locked="false"
   inkscape:label=""
   inkscape:color="rgb(143,240,164)" />
    <sodipodi:guide
   position="0,22.75"
   orientation="0,1"
   id="guide14"
   inkscape:locked="false"
   inkscape:label=""
   inkscape:color="rgb(143,240,164)" />
    <sodipodi:guide
   position="0,85.25"
   orientation="0,1"
   id="guide1"
   inkscape:locked="false"
   inkscape:label=""
   inkscape:color="rgb(143,240,164)" />
    <sodipodi:guide
   position="0,54"
   orientation="0,1"
   id="guide2"
   inkscape:locked="false"
   inkscape:label="capcenter"
   inkscape:color="rgb(0,0,0)" />
    <sodipodi:guide
   position="31.5,105"
   orientation="1,0"
   id="guide1424"
   inkscape:locked="false" />
    <sodipodi:guide
   position="0,44.625"
   orientation="0,1"
   id="guide1428"
   stroke="#000000"
   color="#000000"
   inkscape:locked="false"
   inkscape:label="excenter/opcenter"
   inkscape:color="rgb(152,106,68)" />
    <sodipodi:guide
   position="0,2.25"
   orientation="0,1"
   id="guide586"
   inkscape:locked="false"
   inkscape:label="descender"
   inkscape:color="rgb(0,134,229)" />
    <sodipodi:guide
   position="0,5.25"
   orientation="0,-1"
   id="guide588"
   inkscape:locked="false" />
    <sodipodi:guide
   position="0,8.25"
   orientation="0,-1"
   id="guide590"
   inkscape:locked="false" />
    <sodipodi:guide
   position="0,4"
   orientation="0,1"
   id="guide592"
   inkscape:locked="false"
   inkscape:label=""
   inkscape:color="rgb(143,240,164)" />
    <sodipodi:guide
   position="0,88.25"
   orientation="0,1"
   id="guide706"
   inkscape:label=""
   inkscape:locked="false"
   inkscape:color="rgb(143,240,164)" />
    <sodipodi:guide
   position="0,82.25"
   orientation="0,1"
   id="guide708"
   inkscape:label=""
   inkscape:locked="false"
   inkscape:color="rgb(143,240,164)" />
    <sodipodi:guide
   position="0,69.5"
   orientation="0,1"
   id="guide710"
   inkscape:label=""
   inkscape:locked="false"
   inkscape:color="rgb(143,240,164)" />
    <sodipodi:guide
   position="0,63.5"
   orientation="0,1"
   id="guide712"
   inkscape:label=""
   inkscape:locked="false"
   inkscape:color="rgb(143,240,164)" />
    <sodipodi:guide
   position="0,25.75"
   orientation="0,1"
   id="guide714"
   inkscape:label=""
   inkscape:locked="false"
   inkscape:color="rgb(143,240,164)" />
    <sodipodi:guide
   position="0,19.75"
   orientation="0,1"
   id="guide716"
   inkscape:label=""
   inkscape:locked="false"
   inkscape:color="rgb(143,240,164)" />
    <sodipodi:guide
   position="0,7"
   orientation="0,1"
   id="guide718"
   inkscape:label=""
   inkscape:locked="false"
   inkscape:color="rgb(143,240,164)" />
    <sodipodi:guide
   position="0,1"
   orientation="0,1"
   id="guide720"
   inkscape:label=""
   inkscape:locked="false"
   inkscape:color="rgb(143,240,164)" />
    <sodipodi:guide
   position="0,96"
   orientation="0,1"
   id="guide856"
   inkscape:locked="false"
   inkscape:label="accentcenter"
   inkscape:color="rgb(0,134,229)" />
  </sodipodi:namedview>
  <defs
   id="defs2" />
  <g
   inkscape:groupmode="layer"
   id="layer3"
   inkscape:label="Layer 3"
   style="display:inline;opacity:0.5;stroke-width:3.60000001;stroke-dasharray:none"
   transform="matrix(0.83333333,0,0,0.83333333,-157.97619,-173.09626)" />
  <g
   inkscape:groupmode="layer"
   id="layer2"
   inkscape:label="Layer 2"
   style="display:inline" />
  <g
   inkscape:label="Layer 1"
   inkscape:groupmode="layer"
   id="layer1"
   style="display:inline"><path
     id="path3066"
     style="fill:none;stroke:#000000;stroke-width:0.0625001;stroke-linecap:round;stroke-linejoin:round;paint-order:markers fill stroke"
     d="M 58.5,52.5 A 2.25,2.25 0 0 1 56.25,54.75 2.25,2.25 0 0 1 54,52.5 2.25,2.25 0 0 1 56.25,50.25 2.25,2.25 0 0 1 58.5,52.5 Z" /><path
     id="circle3068"
     style="fill:none;stroke:#000000;stroke-width:0.0625001;stroke-linecap:round;stroke-linejoin:round;paint-order:markers fill stroke"
     d="M 9,52.5 A 2.25,2.25 0 0 1 6.75,54.75 2.25,2.25 0 0 1 4.5,52.5 2.25,2.25 0 0 1 6.75,50.25 2.25,2.25 0 0 1 9,52.5 Z" /><path
     style="fill:none;stroke:#000000;stroke-width:0.0625;stroke-linecap:round;stroke-linejoin:round;stroke-dasharray:none;paint-order:markers fill stroke"
     d="M 6.75,50.25 C 9,50.25 10.5,52.5 24,52.5"
     id="path3070"
     sodipodi:nodetypes="cc" /><path
     style="fill:none;stroke:#000000;stroke-width:0.0625;stroke-linecap:round;stroke-linejoin:round;stroke-dasharray:none;paint-order:markers fill stroke"
     d="M 6.75,54.75 C 9,54.75 10.5,52.5 24,52.5"
     id="path3072"
     sodipodi:nodetypes="cc" /><path
     style="fill:none;stroke:#000000;stroke-width:0.0625;stroke-linecap:round;stroke-linejoin:round;stroke-dasharray:none;paint-order:markers fill stroke"
     d="M 56.25,50.25 C 54,50.25 52.5,52.5 39,52.5"
     id="path3074"
     sodipodi:nodetypes="cc" /><path
     style="fill:none;stroke:#000000;stroke-width:0.0625;stroke-linecap:round;stroke-linejoin:round;stroke-dasharray:none;paint-order:markers fill stroke"
     d="M 56.25,54.75 C 54,54.75 52.5,52.5 39,52.5"
     id="path3076"
     sodipodi:nodetypes="cc" /><path
     style="fill:none;stroke:#000000;stroke-width:0.0625;stroke-linecap:round;stroke-linejoin:round;stroke-dasharray:none;paint-order:markers fill stroke"
     d="M 24,52.5 H 39"
     id="path3078" /><path
     style="fill:none;stroke:#000000;stroke-width:0.0625001;stroke-linecap:round;stroke-linejoin:round;stroke-dasharray:none;paint-order:markers fill stroke"
     d="m 6.75,50.25 v 4.5"
     id="path3080" /><path
     style="fill:none;stroke:#000000;stroke-width:0.0625001;stroke-linecap:round;stroke-linejoin:round;stroke-dasharray:none;paint-order:markers fill stroke"
     d="m 56.250002,50.25 v 4.5"
     id="path3082" /><path
     style="fill:none;stroke:#000000;stroke-width:0.0625001;stroke-linecap:round;stroke-linejoin:round;stroke-dasharray:none;paint-order:markers fill stroke"
     d="m 58.500002,52.5 -4.5,0"
     id="path3086" /><path
     style="fill:none;stroke:#000000;stroke-width:0.0625001;stroke-linecap:round;stroke-linejoin:round;stroke-dasharray:none;paint-order:markers fill stroke"
     d="m 9,52.5 -4.5000001,0"
     id="path3088" /><path
     style="fill:none;stroke:#000000;stroke-width:0.0625;stroke-linecap:round;stroke-linejoin:round;stroke-dasharray:none;paint-order:markers fill stroke"
     d="m 15.590097,33.408117 c 1.590991,1.59099 1.060661,4.242641 10.606602,13.788582"
     id="path4007"
     sodipodi:nodetypes="cc" /><path
     style="fill:none;stroke:#000000;stroke-width:0.0625;stroke-linecap:round;stroke-linejoin:round;stroke-dasharray:none;paint-order:markers fill stroke"
     d="m 12.408117,36.590097 c 1.59099,1.590991 4.242641,1.060661 13.788582,10.606602"
     id="path4009"
     sodipodi:nodetypes="cc" /><path
     style="fill:none;stroke:#000000;stroke-width:0.0625;stroke-linecap:round;stroke-linejoin:round;stroke-dasharray:none;paint-order:markers fill stroke"
     d="M 50.591883,68.409903 C 49.000893,66.818912 46.349242,67.349242 36.803301,57.803301"
     id="path4011"
     sodipodi:nodetypes="cc" /><path
     style="fill:none;stroke:#000000;stroke-width:0.0625;stroke-linecap:round;stroke-linejoin:round;stroke-dasharray:none;paint-order:markers fill stroke"
     d="M 47.409903,71.591883 C 45.818912,70.000893 46.349242,67.349242 36.803301,57.803301"
     id="path4013"
     sodipodi:nodetypes="cc" /><path
     style="fill:none;stroke:#000000;stroke-width:0.0625;stroke-linecap:round;stroke-linejoin:round;stroke-dasharray:none;paint-order:markers fill stroke"
     d="M 26.196699,47.196699 36.803301,57.803301"
     id="path4015" /><path
     style="fill:none;stroke:#000000;stroke-width:0.0625;stroke-linecap:round;stroke-linejoin:round;stroke-dasharray:none;paint-order:markers fill stroke"
     d="M 33.75,27.75 C 33.750001,30 31.5,31.5 31.5,45"
     id="path4017"
     sodipodi:nodetypes="cc" /><path
     style="fill:none;stroke:#000000;stroke-width:0.0625;stroke-linecap:round;stroke-linejoin:round;stroke-dasharray:none;paint-order:markers fill stroke"
     d="M 29.250001,27.749999 C 29.25,30 31.5,31.5 31.5,45"
     id="path4019"
     sodipodi:nodetypes="cc" /><path
     style="fill:none;stroke:#000000;stroke-width:0.0625;stroke-linecap:round;stroke-linejoin:round;stroke-dasharray:none;paint-order:markers fill stroke"
     d="M 33.749999,77.250001 C 33.75,75 31.5,73.5 31.5,60"
     id="path4021"
     sodipodi:nodetypes="cc" /><path
     style="fill:none;stroke:#000000;stroke-width:0.0625;stroke-linecap:round;stroke-linejoin:round;stroke-dasharray:none;paint-order:markers fill stroke"
     d="M 29.25,77.25 C 29.249999,75 31.5,73.5 31.5,60"
     id="path4023"
     sodipodi:nodetypes="cc" /><path
     style="fill:none;stroke:#000000;stroke-width:0.0625;stroke-linecap:round;stroke-linejoin:round;stroke-dasharray:none;paint-order:markers fill stroke"
     d="m 31.5,45 0,15"
     id="path4025" /><path
     style="fill:none;stroke:#000000;stroke-width:0.0625;stroke-linecap:round;stroke-linejoin:round;stroke-dasharray:none;paint-order:markers fill stroke"
     d="m 50.591883,36.590097 c -1.59099,1.590991 -4.242641,1.060661 -13.788582,10.606602"
     id="path4027"
     sodipodi:nodetypes="cc" /><path
     style="fill:none;stroke:#000000;stroke-width:0.0625;stroke-linecap:round;stroke-linejoin:round;stroke-dasharray:none;paint-order:markers fill stroke"
     d="m 47.409904,33.408117 c -1.590992,1.59099 -1.060662,4.242641 -10.606603,13.788582"
     id="path4029"
     sodipodi:nodetypes="cc" /><path
     style="fill:none;stroke:#000000;stroke-width:0.0625;stroke-linecap:round;stroke-linejoin:round;stroke-dasharray:none;paint-order:markers fill stroke"
     d="m 15.590096,71.591883 c 1.590992,-1.59099 1.060662,-4.242641 10.606603,-13.788582"
     id="path4031"
     sodipodi:nodetypes="cc" /><path
     style="fill:none;stroke:#000000;stroke-width:0.0625;stroke-linecap:round;stroke-linejoin:round;stroke-dasharray:none;paint-order:markers fill stroke"
     d="m 12.408117,68.409903 c 1.59099,-1.590991 4.242641,-1.060661 13.788582,-10.606602"
     id="path4033"
     sodipodi:nodetypes="cc" /><path
     style="fill:none;stroke:#000000;stroke-width:0.0625;stroke-linecap:round;stroke-linejoin:round;stroke-dasharray:none;paint-order:markers fill stroke"
     d="M 36.803301,47.196699 26.196699,57.803301"
     id="path4035" /><path
     id="circle4037"
     style="fill:none;stroke:#000000;stroke-width:0.0625001;stroke-linecap:round;stroke-linejoin:round;paint-order:markers fill stroke"
     d="M 33.75,77.25 A 2.25,2.25 0 0 1 31.5,79.5 2.25,2.25 0 0 1 29.25,77.25 2.25,2.25 0 0 1 31.5,75 a 2.25,2.25 0 0 1 2.25,2.25 z" /><path
     style="fill:none;stroke:#000000;stroke-width:0.0625001;stroke-linecap:round;stroke-linejoin:round;stroke-dasharray:none;paint-order:markers fill stroke"
     d="m 31.5,75 v 4.5"
     id="path4039" /><path
     style="fill:none;stroke:#000000;stroke-width:0.0625001;stroke-linecap:round;stroke-linejoin:round;stroke-dasharray:none;paint-order:markers fill stroke"
     d="m 33.75,77.25 -4.5,0"
     id="path4041" /><path
     id="circle4045"
     style="fill:none;stroke:#000000;stroke-width:0.0625001;stroke-linecap:round;stroke-linejoin:round;paint-order:markers fill stroke"
     d="M 33.75,27.75 A 2.25,2.25 0 0 1 31.5,30 2.25,2.25 0 0 1 29.25,27.75 2.25,2.25 0 0 1 31.5,25.5 a 2.25,2.25 0 0 1 2.25,2.25 z" /><path
     style="fill:none;stroke:#000000;stroke-width:0.0625001;stroke-linecap:round;stroke-linejoin:round;stroke-dasharray:none;paint-order:markers fill stroke"
     d="M 31.5,25.5 V 30"
     id="path4047" /><path
     style="fill:none;stroke:#000000;stroke-width:0.0625001;stroke-linecap:round;stroke-linejoin:round;stroke-dasharray:none;paint-order:markers fill stroke"
     d="m 33.75,27.75 -4.5,0"
     id="path4049" /><path
     id="circle4053"
     style="fill:none;stroke:#000000;stroke-width:0.0625001;stroke-linecap:round;stroke-linejoin:round;paint-order:markers fill stroke"
     d="m 51.250893,34.999107 a 2.25,2.25 0 0 1 -2.25,2.25 2.25,2.25 0 0 1 -2.25,-2.25 2.25,2.25 0 0 1 2.25,-2.25 2.25,2.25 0 0 1 2.25,2.25 z" /><path
     style="fill:none;stroke:#000000;stroke-width:0.0625001;stroke-linecap:round;stroke-linejoin:round;stroke-dasharray:none;paint-order:markers fill stroke"
     d="m 50.591884,33.408117 -3.18198,3.18198"
     id="path4057" /><path
     style="fill:none;stroke:#000000;stroke-width:0.0625001;stroke-linecap:round;stroke-linejoin:round;stroke-dasharray:none;paint-order:markers fill stroke"
     d="m 50.591884,36.590097 -3.18198,-3.18198"
     id="path4059" /><path
     id="circle4061"
     style="fill:none;stroke:#000000;stroke-width:0.0625001;stroke-linecap:round;stroke-linejoin:round;paint-order:markers fill stroke"
     d="m 51.250893,70.000893 a 2.25,2.25 0 0 1 -2.25,2.25 2.25,2.25 0 0 1 -2.25,-2.25 2.25,2.25 0 0 1 2.25,-2.25 2.25,2.25 0 0 1 2.25,2.25 z" /><path
     style="fill:none;stroke:#000000;stroke-width:0.0625001;stroke-linecap:round;stroke-linejoin:round;stroke-dasharray:none;paint-order:markers fill stroke"
     d="m 50.591883,68.409903 -3.18198,3.18198"
     id="path4065" /><path
     style="fill:none;stroke:#000000;stroke-width:0.0625001;stroke-linecap:round;stroke-linejoin:round;stroke-dasharray:none;paint-order:markers fill stroke"
     d="m 50.591883,71.591883 -3.18198,-3.18198"
     id="path4067" /><path
     id="circle4069"
     style="fill:none;stroke:#000000;stroke-width:0.0625001;stroke-linecap:round;stroke-linejoin:round;paint-order:markers fill stroke"
     d="m 16.249106,34.999107 a 2.25,2.25 0 0 1 -2.25,2.25 2.25,2.25 0 0 1 -2.25,-2.25 2.25,2.25 0 0 1 2.25,-2.25 2.25,2.25 0 0 1 2.25,2.25 z" /><path
     style="fill:none;stroke:#000000;stroke-width:0.0625001;stroke-linecap:round;stroke-linejoin:round;stroke-dasharray:none;paint-order:markers fill stroke"
     d="M 13.416764,32.825774 14.58145,37.17244"
     id="path4071" /><path
     style="fill:none;stroke:#000000;stroke-width:0.0625001;stroke-linecap:round;stroke-linejoin:round;stroke-dasharray:none;paint-order:markers fill stroke"
     d="M 16.17244,34.416764 11.825774,35.58145"
     id="path4073" /><path
     id="circle4077"
     style="fill:none;stroke:#000000;stroke-width:0.0625001;stroke-linecap:round;stroke-linejoin:round;paint-order:markers fill stroke"
     d="m 16.249105,70.000893 a 2.25,2.25 0 0 1 -2.25,2.25 2.25,2.25 0 0 1 -2.25,-2.25 2.25,2.25 0 0 1 2.25,-2.25 2.25,2.25 0 0 1 2.25,2.25 z" /><path
     style="fill:none;stroke:#000000;stroke-width:0.0625001;stroke-linecap:round;stroke-linejoin:round;stroke-dasharray:none;paint-order:markers fill stroke"
     d="m 15.590097,68.409903 -3.18198,3.18198"
     id="path4079" /><path
     style="fill:none;stroke:#000000;stroke-width:0.0625001;stroke-linecap:round;stroke-linejoin:round;stroke-dasharray:none;paint-order:markers fill stroke"
     d="m 15.590097,71.591883 -3.18198,-3.18198"
     id="path4083" /></g>
</svg>
