<?xml version="1.0" encoding="UTF-8" standalone="no"?>
<!-- Created with Inkscape (http://www.inkscape.org/) -->

<svg
   width="1008"
   height="1680"
   viewBox="0 0 63 105"
   version="1.1"
   id="svg5"
   xml:space="preserve"
   inkscape:version="1.2.2 (b0a8486541, 2022-12-01)"
   sodipodi:docname="2055-flower-punctuation-mark.svg"
   xmlns:inkscape="http://www.inkscape.org/namespaces/inkscape"
   xmlns:sodipodi="http://sodipodi.sourceforge.net/DTD/sodipodi-0.dtd"
   xmlns="http://www.w3.org/2000/svg"
   xmlns:svg="http://www.w3.org/2000/svg">
  <sodipodi:namedview
   id="namedview7"
   pagecolor="#ffffff"
   bordercolor="#666666"
   borderopacity="1.0"
   inkscape:showpageshadow="2"
   inkscape:pageopacity="0.0"
   inkscape:pagecheckerboard="0"
   inkscape:deskcolor="#d1d1d1"
   inkscape:document-units="px"
   showgrid="false"
   inkscape:zoom="0.5"
   inkscape:cx="759"
   inkscape:cy="342"
   inkscape:window-width="1908"
   inkscape:window-height="1017"
   inkscape:window-x="1128"
   inkscape:window-y="418"
   inkscape:window-maximized="1"
   inkscape:current-layer="layer1"
   showguides="false"
   inkscape:lockguides="false">
    <inkscape:grid
   type="xygrid"
   id="grid1382"
   spacingx="0.125"
   spacingy="0.125"
   empspacing="12"
   originx="0"
   originy="0"
   units="px"
   visible="true" />
    <sodipodi:guide
   position="0,21"
   orientation="0,1"
   id="guide4"
   inkscape:locked="false"
   inkscape:label="baseline"
   inkscape:color="rgb(0,134,229)" />
    <sodipodi:guide
   position="0,24"
   orientation="0,-1"
   id="guide5"
   inkscape:locked="false" />
    <sodipodi:guide
   position="0,27"
   orientation="0,-1"
   id="guide6"
   inkscape:locked="false" />
    <sodipodi:guide
   position="0,87"
   orientation="0,1"
   id="guide7"
   inkscape:locked="false"
   inkscape:label="capheight"
   inkscape:color="rgb(0,134,229)" />
    <sodipodi:guide
   position="0,84"
   orientation="0,1"
   id="guide8"
   inkscape:locked="false"
   inkscape:label="exaccentcenter"
   inkscape:color="rgb(0,134,229)" />
    <sodipodi:guide
   position="0,81"
   orientation="0,-1"
   id="guide9"
   inkscape:locked="false" />
    <sodipodi:guide
   position="0,68.25"
   orientation="0,1"
   id="guide10"
   inkscape:locked="false"
   inkscape:label="exheight"
   inkscape:color="rgb(0,134,229)" />
    <sodipodi:guide
   position="0,65.25"
   orientation="0,-1"
   id="guide11"
   inkscape:locked="false" />
    <sodipodi:guide
   position="0,62.25"
   orientation="0,-1"
   id="guide12"
   inkscape:locked="false" />
    <sodipodi:guide
   position="0,66.5"
   orientation="0,1"
   id="guide13"
   inkscape:locked="false"
   inkscape:label=""
   inkscape:color="rgb(143,240,164)" />
    <sodipodi:guide
   position="0,22.75"
   orientation="0,1"
   id="guide14"
   inkscape:locked="false"
   inkscape:label=""
   inkscape:color="rgb(143,240,164)" />
    <sodipodi:guide
   position="0,85.25"
   orientation="0,1"
   id="guide1"
   inkscape:locked="false"
   inkscape:label=""
   inkscape:color="rgb(143,240,164)" />
    <sodipodi:guide
   position="0,54"
   orientation="0,1"
   id="guide2"
   inkscape:locked="false"
   inkscape:label="capcenter"
   inkscape:color="rgb(0,0,0)" />
    <sodipodi:guide
   position="31.5,105"
   orientation="1,0"
   id="guide1424"
   inkscape:locked="false" />
    <sodipodi:guide
   position="0,44.625"
   orientation="0,1"
   id="guide1428"
   stroke="#000000"
   color="#000000"
   inkscape:locked="false"
   inkscape:label="excenter/opcenter"
   inkscape:color="rgb(152,106,68)" />
    <sodipodi:guide
   position="0,2.25"
   orientation="0,1"
   id="guide586"
   inkscape:locked="false"
   inkscape:label="descender"
   inkscape:color="rgb(0,134,229)" />
    <sodipodi:guide
   position="0,5.25"
   orientation="0,-1"
   id="guide588"
   inkscape:locked="false" />
    <sodipodi:guide
   position="0,8.25"
   orientation="0,-1"
   id="guide590"
   inkscape:locked="false" />
    <sodipodi:guide
   position="0,4"
   orientation="0,1"
   id="guide592"
   inkscape:locked="false"
   inkscape:label=""
   inkscape:color="rgb(143,240,164)" />
    <sodipodi:guide
   position="0,88.25"
   orientation="0,1"
   id="guide706"
   inkscape:label=""
   inkscape:locked="false"
   inkscape:color="rgb(143,240,164)" />
    <sodipodi:guide
   position="0,82.25"
   orientation="0,1"
   id="guide708"
   inkscape:label=""
   inkscape:locked="false"
   inkscape:color="rgb(143,240,164)" />
    <sodipodi:guide
   position="0,69.5"
   orientation="0,1"
   id="guide710"
   inkscape:label=""
   inkscape:locked="false"
   inkscape:color="rgb(143,240,164)" />
    <sodipodi:guide
   position="0,63.5"
   orientation="0,1"
   id="guide712"
   inkscape:label=""
   inkscape:locked="false"
   inkscape:color="rgb(143,240,164)" />
    <sodipodi:guide
   position="0,25.75"
   orientation="0,1"
   id="guide714"
   inkscape:label=""
   inkscape:locked="false"
   inkscape:color="rgb(143,240,164)" />
    <sodipodi:guide
   position="0,19.75"
   orientation="0,1"
   id="guide716"
   inkscape:label=""
   inkscape:locked="false"
   inkscape:color="rgb(143,240,164)" />
    <sodipodi:guide
   position="0,7"
   orientation="0,1"
   id="guide718"
   inkscape:label=""
   inkscape:locked="false"
   inkscape:color="rgb(143,240,164)" />
    <sodipodi:guide
   position="0,1"
   orientation="0,1"
   id="guide720"
   inkscape:label=""
   inkscape:locked="false"
   inkscape:color="rgb(143,240,164)" />
    <sodipodi:guide
   position="0,96"
   orientation="0,1"
   id="guide856"
   inkscape:locked="false"
   inkscape:label="accentcenter"
   inkscape:color="rgb(0,134,229)" />
  </sodipodi:namedview>
  <defs
   id="defs2" />
  <g
   inkscape:groupmode="layer"
   id="layer3"
   inkscape:label="Layer 3"
   style="display:inline;opacity:0.5;stroke-width:3.60000001;stroke-dasharray:none"
   transform="matrix(0.83333333,0,0,0.83333333,-157.97619,-173.09626)" />
  <g
   inkscape:groupmode="layer"
   id="layer2"
   inkscape:label="Layer 2"
   style="display:inline" />
  <g
   inkscape:label="Layer 1"
   inkscape:groupmode="layer"
   id="layer1"
   style="display:inline"><path
     id="path1301"
     style="fill:none;stroke:#000000;stroke-width:0.25;stroke-linecap:round;stroke-linejoin:round;paint-order:markers fill stroke"
     d="M 31.5,52.500002 V 45 c 0,-13.5 -2.25,-15 -2.25,-17.25 0,-1.242641 1.007359,-2.25 2.25,-2.25 1.242641,0 2.25,1.007359 2.25,2.25 C 33.750001,30 31.5,31.5 31.5,45 v 7.500002 l 5.303302,-5.303303 c 9.54595,-9.545939 9.01562,-12.197591 10.6066,-13.788582 0.878681,-0.87868 2.303301,-0.878681 3.181982,-10e-7 0.878679,0.87868 0.87868,2.303301 0,3.18198 -1.590991,1.590991 -4.242641,1.060661 -13.788582,10.606603 L 31.5,52.500002 l 7.5,-4e-6 c 13.5,4e-6 15,-2.249998 17.25,-2.249999 1.242642,10e-7 2.250001,1.007359 2.250002,2.250001 -1e-6,1.242641 -1.007359,2.25 -2.25,2.25 -2.25,-10e-7 -3.749999,-2.250003 -17.25,-2.249999 l -7.500002,1e-6 5.303303,5.303301 c 9.54594,9.545942 12.19759,9.015612 13.788581,10.606601 0.878681,0.878679 0.878682,2.303299 10e-7,3.18198 -0.87868,0.878679 -2.3033,0.87868 -3.18198,1e-6 C 45.818916,70.000894 46.349247,67.349242 36.803303,57.803303 L 31.5,52.500002 v 7.500001 c 0,13.5 2.375,15 2.375,17.249998 10e-7,1.242641 -1.132357,2.250001 -2.375,2.250001 -1.242641,-10e-7 -2.249999,-1.007358 -2.250001,-2.249999 2e-6,-2.25 2.250004,-3.75 2.250001,-17.25 v -7.500001 l -5.303295,5.303301 c -9.545947,9.54594 -9.015618,12.197591 -10.606606,13.788583 -0.87868,0.87868 -2.303301,0.878681 -3.181982,0 -0.878679,-0.878681 -0.87868,-2.303299 -2e-6,-3.181981 1.590992,-1.590988 4.242644,-1.060658 13.788583,-10.606601 L 31.5,52.500002 l -7.499999,3e-6 c -13.500003,-2e-6 -15.000004,2.249999 -17.250003,2.250001 -1.2426394,-10e-7 -2.2500004,-1.007359 -2.25,-2.250002 1e-6,-1.242641 1.0073577,-2.249998 2.249999,-2.250001 2.249999,2e-6 3.75,2.250003 17.25,2.250001 l 7.500003,-2e-6 -5.303303,-5.3033 C 16.650756,37.650759 13.999104,38.181089 12.408112,36.590101 c -0.878678,-0.87868 -0.87868,-2.303301 2e-6,-3.181982 0.87868,-0.878679 2.303298,-0.87868 3.18198,-2e-6 1.590988,1.590992 1.060659,4.242643 10.606601,13.788583 z"
     sodipodi:nodetypes="ccccscccccsccccsccccccscccccscccccsccccscccccsccc" /></g>
</svg>
