<?xml version="1.0" encoding="UTF-8" standalone="no"?>
<!-- Created with Inkscape (http://www.inkscape.org/) -->
<svg xmlns:inkscape="http://www.inkscape.org/namespaces/inkscape" xmlns:sodipodi="http://sodipodi.sourceforge.net/DTD/sodipodi-0.dtd" xmlns:xlink="http://www.w3.org/1999/xlink" xmlns="http://www.w3.org/2000/svg" xmlns:svg="http://www.w3.org/2000/svg" width="1008" height="1680" viewBox="0 0 63 105" version="1.1" id="svg5" xml:space="preserve" inkscape:version="1.2.2 (b0a8486541, 2022-12-01)" sodipodi:docname="U+205C-DOTTED-CROSS.svg">
  <sodipodi:namedview id="namedview7" pagecolor="#ffffff" bordercolor="#666666" borderopacity="1.0" inkscape:showpageshadow="2" inkscape:pageopacity="0.0" inkscape:pagecheckerboard="0" inkscape:deskcolor="#d1d1d1" inkscape:document-units="px" showgrid="false" inkscape:zoom="0.32" inkscape:cx="710.9375" inkscape:cy="1328.125" inkscape:window-width="1908" inkscape:window-height="1017" inkscape:window-x="2256" inkscape:window-y="418" inkscape:window-maximized="1" inkscape:current-layer="layer1" showguides="true" inkscape:lockguides="false">
    <inkscape:grid type="xygrid" id="grid1382" spacingx="0.125" spacingy="0.125" empspacing="12" originx="0" originy="0" units="px" visible="true"/>
    <sodipodi:guide position="0,21" orientation="0,-1" id="guide4" inkscape:locked="false"/>
    <sodipodi:guide position="0,24" orientation="0,-1" id="guide5" inkscape:locked="false"/>
    <sodipodi:guide position="0,27" orientation="0,-1" id="guide6" inkscape:locked="false"/>
    <sodipodi:guide position="0,87" orientation="0,-1" id="guide7" inkscape:locked="false"/>
    <sodipodi:guide position="0,84" orientation="0,-1" id="guide8" inkscape:locked="false"/>
    <sodipodi:guide position="0,81" orientation="0,-1" id="guide9" inkscape:locked="false"/>
    <sodipodi:guide position="0,68.25" orientation="0,-1" id="guide10" inkscape:locked="false"/>
    <sodipodi:guide position="0,65.25" orientation="0,-1" id="guide11" inkscape:locked="false"/>
    <sodipodi:guide position="0,62.25" orientation="0,-1" id="guide12" inkscape:locked="false"/>
    <sodipodi:guide position="0,66.5" orientation="0,-1" id="guide13" inkscape:locked="false"/>
    <sodipodi:guide position="0,22.75" orientation="0,-1" id="guide14" inkscape:locked="false"/>
    <sodipodi:guide position="0,85.25" orientation="0,-1" id="guide1" inkscape:locked="false"/>
    <sodipodi:guide position="0,54" orientation="0,-1" id="guide2" inkscape:locked="false"/>
    <sodipodi:guide position="31.5,105" orientation="1,0" id="guide1424" inkscape:locked="false"/>
    <sodipodi:guide position="0,44.625" orientation="0,-1" id="guide1428" inkscape:locked="false"/>
  </sodipodi:namedview>
  <defs id="defs2"/>
  <g inkscape:groupmode="layer" id="layer3" inkscape:label="Layer 3" style="display:inline;opacity:0.5;stroke-width:3.60000001;stroke-dasharray:none" transform="matrix(0.83333333,0,0,0.83333333,-157.97619,-173.09626)"/>
  <g inkscape:groupmode="layer" id="layer2" inkscape:label="Layer 2" style="display:inline"/>
  <g inkscape:label="Layer 1" inkscape:groupmode="layer" id="layer1" style="display:inline">
    <g id="g2854" transform="matrix(-1.1768908,2.1149504e-8,-2.1149504e-8,-1.1768908,68.572067,131.42977)" style="fill:none;fill-opacity:1;stroke-width:0.637272;stroke-dasharray:none">
      <path style="display:inline;fill:none;fill-opacity:1;stroke:#000000;stroke-width:0.637272;stroke-linecap:round;stroke-linejoin:round;stroke-dasharray:none;stroke-opacity:1" d="M 11.5,60.375001 H 51.4999" id="path1493"/>
      <path style="display:inline;fill:none;fill-opacity:1;stroke:#000000;stroke-width:0.637272;stroke-linecap:round;stroke-linejoin:round;stroke-dasharray:none;stroke-opacity:1" d="m 31.5,80.375 v -40" id="path1495"/>
    </g>
    <path id="path1573-0-3-5" style="display:inline;fill:none;fill-opacity:1;stroke:#000000;stroke-width:0.75;stroke-linecap:round;stroke-linejoin:round" d="m 49.46796,46.826448 a 3.1250017,3.1250057 45 0 1 -4.419422,3e-6 3.1250017,3.1250057 45 0 1 3e-6,-4.419424 3.1250017,3.1250057 45 0 1 4.419423,-2e-6 3.1250017,3.1250057 45 0 1 -4e-6,4.419423 z"/>
    <path id="ellipse2883" style="display:inline;fill:none;fill-opacity:1;stroke:#000000;stroke-width:0.75;stroke-linecap:round;stroke-linejoin:round" d="m 17.951467,78.342942 a 3.1250017,3.1250057 45 0 1 -4.419423,3e-6 3.1250017,3.1250057 45 0 1 4e-6,-4.419424 3.1250017,3.1250057 45 0 1 4.419422,-3e-6 3.1250017,3.1250057 45 0 1 -3e-6,4.419424 z"/>
    <path id="ellipse2885" style="display:inline;fill:none;fill-opacity:1;stroke:#000000;stroke-width:0.75;stroke-linecap:round;stroke-linejoin:round" d="m 45.04854,78.342941 a 3.1250057,3.1250017 45 0 1 -2e-6,-4.419423 3.1250057,3.1250017 45 0 1 4.419422,3e-6 3.1250057,3.1250017 45 0 1 3e-6,4.419423 3.1250057,3.1250017 45 0 1 -4.419423,-3e-6 z"/>
    <path id="ellipse2887" style="display:inline;fill:none;fill-opacity:1;stroke:#000000;stroke-width:0.75;stroke-linecap:round;stroke-linejoin:round" d="m 13.532047,46.826448 a 3.1250057,3.1250017 45 0 1 -2e-6,-4.419423 3.1250057,3.1250017 45 0 1 4.419422,3e-6 3.1250057,3.1250017 45 0 1 2e-6,4.419423 3.1250057,3.1250017 45 0 1 -4.419422,-3e-6 z"/>
    <path style="fill:none;fill-opacity:1;stroke:#000000;stroke-width:0.75;stroke-linecap:round;stroke-linejoin:round;stroke-miterlimit:2.61313;stroke-dasharray:none" d="m 13.532045,42.407025 4.419424,4.419426" id="path3581"/>
    <path style="fill:none;fill-opacity:1;stroke:#000000;stroke-width:0.75;stroke-linecap:round;stroke-linejoin:round;stroke-miterlimit:2.61313;stroke-dasharray:none" d="m 17.951467,42.407028 -4.419418,4.419418" id="path3583"/>
    <path style="fill:none;fill-opacity:1;stroke:#000000;stroke-width:0.75;stroke-linecap:round;stroke-linejoin:round;stroke-miterlimit:2.61313;stroke-dasharray:none" d="m 49.467964,42.407024 -4.419426,4.419427" id="path3585"/>
    <path style="fill:none;fill-opacity:1;stroke:#000000;stroke-width:0.75;stroke-linecap:round;stroke-linejoin:round;stroke-miterlimit:2.61313;stroke-dasharray:none" d="m 45.048541,42.407027 4.419419,4.419421" id="path3587"/>
    <path style="display:inline;fill:none;fill-opacity:1;stroke:#000000;stroke-width:0.75;stroke-linecap:round;stroke-linejoin:round;stroke-miterlimit:2.61313;stroke-dasharray:none" d="m 49.467964,73.923518 -4.419427,4.419426" id="path3585-3"/>
    <path style="display:inline;fill:none;fill-opacity:1;stroke:#000000;stroke-width:0.75;stroke-linecap:round;stroke-linejoin:round;stroke-miterlimit:2.61313;stroke-dasharray:none" d="m 45.04854,73.923522 4.41942,4.41942" id="path3587-6"/>
    <path style="display:inline;fill:none;fill-opacity:1;stroke:#000000;stroke-width:0.75;stroke-linecap:round;stroke-linejoin:round;stroke-miterlimit:2.61313;stroke-dasharray:none" d="m 17.95147,73.923518 -4.419426,4.419427" id="path3585-7"/>
    <path style="display:inline;fill:none;fill-opacity:1;stroke:#000000;stroke-width:0.75;stroke-linecap:round;stroke-linejoin:round;stroke-miterlimit:2.61313;stroke-dasharray:none" d="m 13.532046,73.923522 4.41942,4.41942" id="path3587-5"/>
  </g>
</svg>
