<?xml version="1.0" encoding="UTF-8" standalone="no"?>
<!-- Created with Inkscape (http://www.inkscape.org/) -->

<svg
   width="1008"
   height="1680"
   viewBox="0 0 63 105"
   version="1.1"
   id="svg5"
   xml:space="preserve"
   inkscape:version="1.3.2 (091e20e, 2023-11-25)"
   sodipodi:docname="2620-skull-and-cross-bones.svg"
   xmlns:inkscape="http://www.inkscape.org/namespaces/inkscape"
   xmlns:sodipodi="http://sodipodi.sourceforge.net/DTD/sodipodi-0.dtd"
   xmlns="http://www.w3.org/2000/svg"
   xmlns:svg="http://www.w3.org/2000/svg">
  <sodipodi:namedview
   id="namedview7"
   pagecolor="#ffffff"
   bordercolor="#666666"
   borderopacity="1.0"
   inkscape:showpageshadow="2"
   inkscape:pageopacity="0.0"
   inkscape:pagecheckerboard="0"
   inkscape:deskcolor="#d1d1d1"
   inkscape:document-units="px"
   showgrid="false"
   inkscape:zoom="1.6331521"
   inkscape:cx="606.18972"
   inkscape:cy="877.75046"
   inkscape:window-width="1392"
   inkscape:window-height="800"
   inkscape:window-x="0"
   inkscape:window-y="25"
   inkscape:window-maximized="0"
   inkscape:current-layer="layer1"
   showguides="false"
   inkscape:lockguides="false">
    <inkscape:grid
   type="xygrid"
   id="grid1382"
   spacingx="0.125"
   spacingy="0.125"
   empspacing="12"
   originx="0"
   originy="0"
   units="px"
   visible="false" />
    <sodipodi:guide
   position="0,21"
   orientation="0,1"
   id="guide4"
   inkscape:locked="false"
   inkscape:label="baseline"
   inkscape:color="rgb(0,134,229)" />
    <sodipodi:guide
   position="0,24"
   orientation="0,-1"
   id="guide5"
   inkscape:locked="false" />
    <sodipodi:guide
   position="0,27"
   orientation="0,-1"
   id="guide6"
   inkscape:locked="false" />
    <sodipodi:guide
   position="0,87"
   orientation="0,1"
   id="guide7"
   inkscape:locked="false"
   inkscape:label="capheight"
   inkscape:color="rgb(0,134,229)" />
    <sodipodi:guide
   position="0,84"
   orientation="0,1"
   id="guide8"
   inkscape:locked="false"
   inkscape:label="exaccentcenter"
   inkscape:color="rgb(0,134,229)" />
    <sodipodi:guide
   position="0,81"
   orientation="0,-1"
   id="guide9"
   inkscape:locked="false" />
    <sodipodi:guide
   position="0,68.25"
   orientation="0,1"
   id="guide10"
   inkscape:locked="false"
   inkscape:label="exheight"
   inkscape:color="rgb(0,134,229)" />
    <sodipodi:guide
   position="0,65.25"
   orientation="0,-1"
   id="guide11"
   inkscape:locked="false" />
    <sodipodi:guide
   position="0,62.25"
   orientation="0,-1"
   id="guide12"
   inkscape:locked="false" />
    <sodipodi:guide
   position="0,66.5"
   orientation="0,1"
   id="guide13"
   inkscape:locked="false"
   inkscape:label=""
   inkscape:color="rgb(143,240,164)" />
    <sodipodi:guide
   position="0,22.75"
   orientation="0,1"
   id="guide14"
   inkscape:locked="false"
   inkscape:label=""
   inkscape:color="rgb(143,240,164)" />
    <sodipodi:guide
   position="0,85.25"
   orientation="0,1"
   id="guide1"
   inkscape:locked="false"
   inkscape:label=""
   inkscape:color="rgb(143,240,164)" />
    <sodipodi:guide
   position="0,54"
   orientation="0,1"
   id="guide2"
   inkscape:locked="false"
   inkscape:label="capcenter"
   inkscape:color="rgb(0,0,0)" />
    <sodipodi:guide
   position="31.5,105"
   orientation="1,0"
   id="guide1424"
   inkscape:locked="false" />
    <sodipodi:guide
   position="0,44.625"
   orientation="0,1"
   id="guide1428"
   stroke="#000000"
   color="#000000"
   inkscape:locked="false"
   inkscape:label="excenter/opcenter"
   inkscape:color="rgb(152,106,68)" />
    <sodipodi:guide
   position="0,2.25"
   orientation="0,1"
   id="guide586"
   inkscape:locked="false"
   inkscape:label="descender"
   inkscape:color="rgb(0,134,229)" />
    <sodipodi:guide
   position="0,5.25"
   orientation="0,-1"
   id="guide588"
   inkscape:locked="false" />
    <sodipodi:guide
   position="0,8.25"
   orientation="0,-1"
   id="guide590"
   inkscape:locked="false" />
    <sodipodi:guide
   position="0,4"
   orientation="0,1"
   id="guide592"
   inkscape:locked="false"
   inkscape:label=""
   inkscape:color="rgb(143,240,164)" />
    <sodipodi:guide
   position="0,88.25"
   orientation="0,1"
   id="guide706"
   inkscape:label=""
   inkscape:locked="false"
   inkscape:color="rgb(143,240,164)" />
    <sodipodi:guide
   position="0,82.25"
   orientation="0,1"
   id="guide708"
   inkscape:label=""
   inkscape:locked="false"
   inkscape:color="rgb(143,240,164)" />
    <sodipodi:guide
   position="0,69.5"
   orientation="0,1"
   id="guide710"
   inkscape:label=""
   inkscape:locked="false"
   inkscape:color="rgb(143,240,164)" />
    <sodipodi:guide
   position="0,63.5"
   orientation="0,1"
   id="guide712"
   inkscape:label=""
   inkscape:locked="false"
   inkscape:color="rgb(143,240,164)" />
    <sodipodi:guide
   position="0,25.75"
   orientation="0,1"
   id="guide714"
   inkscape:label=""
   inkscape:locked="false"
   inkscape:color="rgb(143,240,164)" />
    <sodipodi:guide
   position="0,19.75"
   orientation="0,1"
   id="guide716"
   inkscape:label=""
   inkscape:locked="false"
   inkscape:color="rgb(143,240,164)" />
    <sodipodi:guide
   position="0,7"
   orientation="0,1"
   id="guide718"
   inkscape:label=""
   inkscape:locked="false"
   inkscape:color="rgb(143,240,164)" />
    <sodipodi:guide
   position="0,1"
   orientation="0,1"
   id="guide720"
   inkscape:label=""
   inkscape:locked="false"
   inkscape:color="rgb(143,240,164)" />
    <sodipodi:guide
   position="0,96"
   orientation="0,1"
   id="guide856"
   inkscape:locked="false"
   inkscape:label="accentcenter"
   inkscape:color="rgb(0,134,229)" />
  </sodipodi:namedview>
  <defs
   id="defs2" />
  <g
   inkscape:groupmode="layer"
   id="layer3"
   inkscape:label="Layer 3"
   style="display:none;opacity:0.5;stroke-width:3.6;stroke-dasharray:none"
   transform="matrix(0.83333333,0,0,0.83333333,-157.97619,-173.09626)" />
  <g
   inkscape:groupmode="layer"
   id="layer2"
   inkscape:label="Layer 2"
   style="display:none" />
  <g
   inkscape:label="Layer 1"
   inkscape:groupmode="layer"
   id="layer1"
   style="display:inline"><path
     style="color:#000000;fill:none;stroke:#15d222;stroke-width:0.125;stroke-opacity:1"
     d="m 32.865234,26.78125 c -3.619357,-0.182498 -9.350888,0.458692 -12.705084,2.84304 -3.354197,2.384349 -5.447141,6.322403 -5.238368,10.330835 0.192541,3.588262 1.551266,6.876471 3.571407,8.839617 l 0.169066,-0.898367 c -1.826263,-1.774738 -2.775966,-4.567019 -2.959223,-7.982266 -0.193077,-3.707066 1.774545,-7.424087 4.881669,-9.63266 3.107123,-2.208573 8.775034,-2.896199 11.091108,-2.807574 2.316073,0.08863 4.248546,0.396276 6.099551,0.877687 1.851004,0.481412 3.649874,1.157666 5.689683,2.648982 2.03981,1.491316 3.74601,4.783446 3.895223,8.579663 0.149213,3.796218 -1.000201,6.218446 -2.944778,8.010166 l 0.18351,0.986154 c 2.093676,-1.9291 3.698706,-4.997361 3.542226,-9.018883 C 47.984743,35.536123 46.141708,31.988946 43.917361,30.3626 41.693014,28.736254 39.870487,28.089293 37.972656,27.595703 36.07534,27.102247 34.134334,26.783013 32.865234,26.78125 Z"
     id="path43"
     sodipodi:nodetypes="ccccccccsccccccsc" /><path
     style="color:#000000;fill:none;stroke:#15d222;stroke-width:0.125;stroke-opacity:1"
     d="m 44.56122,37.311454 -0.574887,0.504952 c 0.310445,0.272391 0.435385,0.574838 0.484375,1.046875 0.04899,0.472037 -0.0063,1.095322 -0.07617,1.859375 -0.09745,1.020349 -0.836192,2.149818 -0.888672,3.369141 -0.278719,2.333438 0.393251,4.602561 0.699219,6.386719 0.202808,2.011074 -0.433811,3.738745 -1.064127,4.304065 -0.630315,0.56532 -1.999733,0.952836 -2.744593,1.219724 -0.74486,0.266887 -1.530404,0.759457 -2.345756,1.483804 -0.815352,0.724347 -1.134098,1.709561 -1.113498,2.717676 l 0.77578,-0.37566 c -0.01746,-0.854493 0.210286,-1.183091 0.949082,-1.902255 0.655444,-0.518522 1.377764,-0.966961 2.010406,-1.192537 0.632642,-0.225577 2.109332,-0.58092 3.037913,-1.413905 0.928581,-0.832984 1.495864,-2.71907 1.223053,-4.768118 -0.27281,-2.049049 -0.910551,-4.244745 -0.763926,-5.77013 0.146626,-1.525385 0.880706,-2.681165 0.977466,-3.716342 0.09676,-1.035177 0.1608,-1.68863 0.09926,-2.281689 -0.06154,-0.593058 -0.450785,-1.266255 -0.684925,-1.471695 z m -25.422598,0.551727 c -0.310231,0.271402 -0.433442,0.573057 -0.482422,1.044922 -0.04893,0.471371 0.0045,1.094893 0.08814,1.986724 0.08364,0.891832 0.827385,2.023112 0.876705,3.251604 0.275536,2.326363 -0.395509,4.591728 -0.701172,6.375 -0.202719,2.002582 0.435541,3.734822 1.085161,4.315497 0.649621,0.580674 1.589642,0.858965 2.63073,1.154464 1.041088,0.295498 1.609765,0.792143 2.449497,1.570641 0.839733,0.778498 1.102208,1.685101 1.080778,2.681729 l -0.785227,-0.35509 c 0.01855,-0.862733 -0.133938,-1.112318 -0.923758,-1.966654 -0.717562,-0.538013 -1.147085,-0.923023 -2.114935,-1.200242 -0.96785,-0.277219 -2.037108,-0.570292 -2.946439,-1.383189 -0.909331,-0.812897 -1.476916,-2.700855 -1.204016,-4.747127 0.272901,-2.046272 0.912557,-4.243095 0.76491,-5.769957 -0.147646,-1.526862 -0.879581,-2.679057 -0.976424,-3.712728 -0.09684,-1.03367 -0.162794,-1.687671 -0.101244,-2.28065 0.06155,-0.592979 0.2776,-1.142877 0.746094,-1.552734 z"
     id="path5"
     sodipodi:nodetypes="ccsccccccccccccccsccsccccccccccccccscc" /><path
     style="color:#000000;fill:none;stroke:#1578d2;stroke-width:0.125;stroke-opacity:1"
     d="m 21.70779,56.54491 c 0,0 1.22365,2.79674 1.2981,4.627064 l 0.002,0.05273 -0.01172,0.05078 c -0.302552,1.312317 -0.20942,2.911765 0.123047,4.162109 v 0.0039 0.0039 c 0.406288,1.637964 2.126332,3.730404 3.701171,4.373047 1.74005,0.632765 2.774286,0.78711 4.746094,0.78711 v 0.78125 c -2.021421,0 -3.219853,-0.17923 -5.027344,-0.837891 l -0.0078,-0.0039 -0.0059,-0.002 c -1.910071,-0.779442 -3.67421,-2.946475 -4.16211,-4.904297 -3.12e-4,-0.0012 3.13e-4,-0.0027 0,-0.0039 -2e-4,-8e-4 -0.0018,-0.0012 -0.002,-0.002 -0.355502,-1.340404 -0.447839,-2.97873 -0.134766,-4.429687 -0.06623,-1.628225 -0.791466,-3.319834 -1.491844,-5.015274 z"
     id="path6"
     sodipodi:nodetypes="cccsccccccccccssccc" /><path
     style="color:#000000;fill:none;stroke:#1578d2;stroke-width:0.125;stroke-opacity:1"
     d="m 42.321829,56.159387 c -0.69984,1.694137 -1.453918,3.413231 -1.519188,5.039867 0.314298,1.45203 0.219501,3.093699 -0.136718,4.435547 -0.49327,1.962117 -2.28077,4.069066 -4.189454,4.845703 -1.781974,0.727128 -2.988122,0.912109 -5,0.912109 v -0.78125 c 1.967161,0 2.990325,-0.153817 4.705079,-0.853516 1.588047,-0.646171 3.315505,-2.679357 3.726562,-4.314453 l 0.002,-0.002 v -0.0039 c 0.332502,-1.250476 0.425513,-2.851109 0.123047,-4.162109 l -0.01172,-0.05078 0.002,-0.05273 c 0.07233,-1.830625 0.634188,-2.97762 1.328482,-4.658331 z"
     id="path7"
     sodipodi:nodetypes="ccccccccccscccc" /><path
     stroke="#000000"
     stroke-width="0.0625pt"
     d="m 31.156087,56.591943 c -0.773702,0.94452 -1.286155,1.36654 -1.688078,1.41678 -0.452164,0.02713 -0.854085,-0.781741 -0.864135,-2.07292 -0.001,-0.381828 0.07235,-1.101271 0.172827,-1.597646 0.09948,-0.496375 0.463216,-1.23491 0.658149,-1.551424 0.538578,-0.819924 0.755616,-1.069116 1.730281,-1.810665 z m 0.713414,-5.596785 c 0.974665,0.73351 1.195722,0.984713 1.728271,1.808656 0.200962,0.31149 0.562693,1.055048 0.663174,1.547405 0.10048,0.492356 0.180865,1.215818 0.170817,1.597645 0,1.286155 -0.411972,2.10005 -0.854087,2.069906 -0.401924,-0.05024 -0.914376,-0.47226 -1.688079,-1.41678 z m -8.97294,-5.677168 c 1.356492,-0.241154 2.662743,-0.391875 4.019234,-0.542596 1.768463,-0.452164 2.662743,1.567501 2.180435,3.09481 -0.612933,1.346443 -1.477069,2.532117 -2.461781,3.677599 -0.763654,0.864135 -1.67803,0.99476 -2.552214,0.703366 -0.703366,-0.200962 -1.346443,-0.63303 -2.049809,-1.637838 -0.301442,-0.864135 -0.562693,-1.316299 -0.954568,-2.381396 -0.303452,-0.994761 0.170817,-2.471829 1.8388,-2.934041 z m 17.312851,-0.0201 c 1.667982,0.462212 2.15029,1.93928 1.838799,2.934041 -0.391875,1.065097 -0.653125,1.517261 -0.964616,2.381396 -0.693318,1.004808 -1.346443,1.436876 -2.049809,1.637838 -0.864135,0.291394 -1.778511,0.160769 -2.552214,-0.703366 -0.99476,-1.145482 -1.858895,-2.331156 -2.471829,-3.677599 -0.492356,-1.527309 0.401924,-3.546974 2.170387,-3.09481 1.346443,0.150721 2.662742,0.301442 4.009186,0.542596 z"
     id="path8"
     style="fill:none;stroke:#15d222;stroke-width:0.125;stroke-opacity:1"
     sodipodi:nodetypes="cccccccccscccccccccccccccccccccc" /><path
     style="color:#000000;fill:none;stroke:#1578d2;stroke-width:0.125;stroke-opacity:1"
     d="m 39.741755,57.182364 c -0.573922,1.34922 -0.548916,1.422767 -0.933673,2.71586 -0.384757,1.293093 -0.516554,2.065488 -0.73391,3.826478 l 0.388672,0.04687 c 0.216389,-1.753161 0.341273,-2.48839 0.689453,-3.71289 0.412408,-1.334559 0.584691,-1.824305 1.15625,-3.167969 z m -17.06029,-0.351483 c 0.571404,1.337286 0.739101,1.965174 1.150566,3.301934 0.348641,1.225807 0.475931,1.959118 0.691406,3.708985 l 0.386719,-0.04687 C 24.693785,62.037784 24.56095,61.265254 24.176752,59.971346 23.792555,58.677438 23.451625,57.710081 23.16461,57.038359 Z"
     id="path9"
     sodipodi:nodetypes="cccccccccccccc" /><path
     style="color:#000000;fill:none;stroke:#1578d2;stroke-width:0.125;stroke-opacity:1"
     d="m 37.874953,60.095703 c -1.485227,0.900296 -3.689654,1.075711 -6.248047,1.087891 -2.29845,0.04236 -4.870621,-0.08163 -6.410156,-1.027344 l 0.164062,-0.267578 c 1.414601,0.868968 3.958772,1.024472 6.240235,0.982422 h 0.002 c 2.545128,-0.01203 4.70776,-0.205195 6.089844,-1.042969 z m -0.808075,2.144613 c -1.540094,1.048638 -3.210453,1.230925 -5.494612,1.287028 h -0.002 c -2.18966,0.08165 -4.0401,-0.248542 -5.637776,-1.252627 l -0.0037,0.392862 c 1.663928,1.045722 3.423754,1.255401 5.653237,1.172265 2.296738,-0.05651 3.879339,-0.08195 5.493839,-1.181253 z"
     id="path10"
     sodipodi:nodetypes="cccccscccccccccc" /><path
     style="color:#000000;fill:none;stroke:#1578d2;stroke-width:0.125;stroke-opacity:1"
     d="m 24.910156,63.79493 -0.386719,0.04687 c 1.794228,2.165269 4.2702,2.454623 7.054688,2.527341 1.509641,0.05498 3.018372,-0.214395 4.255859,-0.689454 1.238041,-0.475271 2.20699,-1.099162 2.62886,-1.908115 l -0.388537,-0.04796 c -0.345802,0.663089 -1.195895,1.135912 -2.380948,1.590841 -1.185052,0.45493 -2.647698,0.719242 -4.101562,0.666016 h -0.002 c -3.012691,-0.06648 -4.514786,-0.0056 -6.679641,-2.185539 z"
     id="path11"
     sodipodi:nodetypes="cccsccsccc" /><g
     id="path12"
     style="stroke:#1578d2;stroke-opacity:1;fill:none;stroke-width:0.125"><path
       style="color:#000000;fill:none;stroke:#1578d2;stroke-width:0.125;stroke-opacity:1"
       d="m 37.373065,60.360891 -0.343467,0.144453 0.08759,4.076342 0.3125,-0.234793 z m -11.736346,0.02186 -0.03906,4.048556 0.3125,0.249775 0.03906,-4.162638 z m 10.375,0.428854 -0.3125,0.06687 0.01953,4.426184 0.3125,-0.128616 z m -9.015625,0.02788 -0.01953,4.338243 0.3125,0.130989 0.01953,-4.402012 z m 7.488281,0.217208 -0.3125,0.02966 0.03906,4.662942 0.3125,-0.07139 z m -5.980469,0.02614 -0.04297,4.577551 0.3125,0.06433 0.04297,-4.612468 z m 1.359375,0.09079 -0.02148,4.703947 0.3125,0.02911 0.02148,-4.723983 z m 3.302735,-0.02352 -0.3125,0.01191 0.01953,4.785949 0.3125,-0.03134 z m -1.777344,0.03724 -0.0059,4.787138 0.320369,0.0094 -0.002,-4.800742 z"
       id="path41"
       sodipodi:nodetypes="ccccccccccccccccccccccccccccccccccccccccccccc" /></g><g
     id="path2"
     style="stroke:none;stroke-opacity:1;stroke-width:0.125;fill:none"><path
       style="color:#000000;fill:none;stroke:#15d222;stroke-width:0.125;stroke-linejoin:round;stroke-opacity:1"
       d="m 42.150265,56.586602 c 2.558624,-1.268647 4.232978,-2.059229 6.537235,-3.205743 0.639429,-0.541402 0.8695,-1.034754 1.095703,-1.568359 0.22628,-0.533787 0.472487,-1.133644 1.109375,-1.625 0.599177,-0.563867 1.154419,-0.839478 1.673828,-0.830078 l -7.1e-5,2.3e-5 c 0.52548,0.0095 0.940228,0.321465 1.197266,0.689453 0.01739,0.02493 0.03181,0.05181 0.04297,0.08008 0.391251,0.990844 0.556153,2.004565 0.533203,3.046875 1.002738,0.930183 1.618822,1.538862 2.228515,2.441406 0.03858,0.05685 0.06149,0.122875 0.06641,0.191407 0.05027,0.688643 -0.264711,1.262987 -0.751954,1.589843 -0.478144,0.320753 -1.09138,0.439412 -1.734375,0.451172 -0.85024,0.145546 -1.425708,-0.04624 -1.875,-0.162109 -0.456158,-0.117635 -0.821352,-0.185106 -1.652343,0.142578 h -0.0039 l -9.648988,4.543334 -0.09658,-0.812861 9.43509,-4.447219 c 0.0077,-0.0035 0.01552,-0.0068 0.02344,-0.0098 0.963462,-0.381078 1.62375,-0.304663 2.138672,-0.171875 0.514922,0.132791 0.860324,0.281064 1.572266,0.150391 0.02128,-0.0037 0.04284,-0.0057 0.06445,-0.0059 0.557286,-0.0065 1.044536,-0.126761 1.341797,-0.326172 0.271126,-0.181879 0.374946,-0.426888 0.373046,-0.806641 -0.561282,-0.807631 -1.079834,-1.34663 -2.099609,-2.289062 -0.08507,-0.07863 -0.130856,-0.19095 -0.125,-0.306641 0.05191,-0.97705 -0.136689,-1.916238 -0.505859,-2.871094 -0.15386,-0.206475 -0.312584,-0.331837 -0.53711,-0.335937 l -3e-6,3e-6 c -0.238174,-0.0043 -0.619495,0.129393 -1.140625,0.625 -0.01056,0.0097 -0.02164,0.01884 -0.0332,0.02734 -0.488995,0.369539 -0.640052,0.771939 -0.875,1.326171 C 50.268958,52.67142 49.953588,53.350648 49.175781,54 c -0.02341,0.01917 -0.04898,0.03556 -0.07617,0.04883 -5.131206,2.554594 -7.35618,3.600751 -7.38976,3.61361 z M 22.12629,64.436708 c 0,0 -4.283759,2.286977 -6.858707,3.274303 -0.01469,0.0055 -0.02969,0.01002 -0.04492,0.01367 -1.138723,0.284143 -1.797413,0.06566 -2.34375,-0.08008 -0.525654,-0.140221 -1.043453,-0.204722 -2.183593,0.15625 -0.245936,0.216279 -0.376166,0.438456 -0.384766,0.660156 -0.0094,0.24124 0.09022,0.50481 0.330078,0.753907 0.684956,0.671684 1.173256,1.103304 1.791016,1.710937 0.05336,0.05223 0.09064,0.118649 0.107422,0.191406 0.198403,0.879521 0.228786,1.634905 0.332031,2.617188 0.180021,0.532334 0.391222,0.685736 0.611328,0.722656 0.218152,0.0366 0.547935,-0.07445 0.884766,-0.328125 0.361323,-0.437592 0.752022,-0.810662 0.96289,-1.1875 l 0.0039,-0.0039 c 0.360429,-0.620737 0.772285,-1.353217 1.292969,-1.974609 0.03264,-0.03853 0.07243,-0.07037 0.117188,-0.09375 l 6.414557,-3.384853 0.44776,0.66324 -6.411208,3.366095 c -0.441223,0.537523 -0.831962,1.207457 -1.185546,1.816406 l 0.002,-0.0059 c -0.307898,0.550237 -0.759917,0.950446 -1.082031,1.349609 -0.0189,0.02392 -0.04053,0.04556 -0.06445,0.06445 -0.449047,0.346732 -0.971078,0.580935 -1.511718,0.490235 -0.540641,-0.0907 -0.995958,-0.543552 -1.232422,-1.259766 -0.0087,-0.026 -0.01455,-0.05284 -0.01758,-0.08008 -0.10842,-1.006053 -0.145508,-1.710859 -0.3125,-2.496094 -0.563196,-0.549342 -1.03889,-0.975215 -1.705078,-1.628906 l -0.0078,-0.0078 C 9.7181116,69.381969 9.5105449,68.911903 9.5292979,68.429681 9.548051,67.94746 9.8009061,67.477715 10.244142,67.1289 c 0.03566,-0.02826 0.07598,-0.05007 0.11914,-0.06445 1.351013,-0.450336 2.123683,-0.333998 2.716797,-0.175781 0.588377,0.15696 0.959893,0.317982 1.9375,0.07813 2.578558,-0.991429 4.754204,-2.149742 7.032155,-3.361312 z"
       id="path45"
       sodipodi:nodetypes="ccsccccscccscsccccccsccsccccssccscccccccsccccccsccccccccccccscccccscssccc" /></g><g
     id="path1"
     style="stroke:#1578d2;stroke-opacity:1;stroke-width:0.125;fill:none"><path
       style="color:#000000;fill:none;stroke:#1578d2;stroke-linejoin:round;stroke-opacity:1;stroke-width:0.125"
       d="m 21.319507,57.667641 c -2.507539,-1.187915 -5.108245,-2.389222 -7.54606,-3.716465 -0.0185,-0.01027 -0.03614,-0.02203 -0.05274,-0.03516 -0.777231,-0.615355 -1.06072,-1.308771 -1.330078,-1.882813 -0.267667,-0.570438 -0.515697,-1.036293 -1.283203,-1.505859 -0.347762,-0.169942 -0.60713,-0.257792 -0.759766,-0.238282 l 2e-6,-5.3e-5 c -0.151701,0.01939 -0.329096,0.133003 -0.583984,0.554688 -0.3319031,0.799899 -0.3176831,1.700019 -0.3769531,2.650391 -0.00587,0.08959 -0.042429,0.174434 -0.1035157,0.240234 -0.7196417,0.775662 -1.4411561,1.173878 -1.9375,1.978516 1.7e-6,7e-4 1.7e-6,0.0013 0,0.002 -0.1713181,0.275834 -0.2112481,0.465112 -0.2050781,0.585937 0.00617,0.120825 0.048239,0.198033 0.1386719,0.289063 0.1808656,0.182063 0.5886443,0.333383 0.8925781,0.408203 6.5e-4,-2e-6 0.0013,-2e-6 0.00195,0 0.862183,0.215078 1.4008457,0.132099 2.0058599,0.02539 0.605013,-0.10671 1.281432,-0.243322 2.205078,-0.05859 0.03102,0.0061 0.06119,0.01593 0.08984,0.0293 3.314321,1.544343 6.477089,3.056342 9.676726,4.630859 l -0.09531,0.827005 C 21.90748,62.40914 18.528657,60.677158 12.207031,57.73042 11.439943,57.582504 10.928048,57.68504 10.316406,57.79292 9.69656,57.902244 8.9750575,58.002944 7.9843754,57.75581 v 0.002 C 7.6351844,57.671855 7.1127164,57.5313 6.7246098,57.140623 6.5305565,56.945285 6.3779245,56.6649 6.3613285,56.339842 c -0.016596,-0.325058 0.09222,-0.669867 0.3203125,-1.03711 0.5830964,-0.945275 1.3362018,-1.38861 1.9472657,-2.017578 0.045204,-0.870778 0.01742,-1.823182 0.4199218,-2.771484 0.0062,-0.01541 0.013374,-0.03042 0.021484,-0.04492 0.3311725,-0.564876 0.727425,-0.897268 1.1796875,-0.955078 0.452263,-0.05781 0.837089,0.128368 1.224567,0.320306 0.01,0.0048 0.0198,0.01003 0.0293,0.01563 0.927092,0.56237 1.311469,1.249981 1.59375,1.851563 0.279846,0.596392 0.479043,1.092189 1.097657,1.58789 2.551467,1.410199 4.063301,2.000393 6.669476,3.268027 z m 19.660923,6.00228 c 2.294702,1.06405 4.588645,2.130026 6.882816,3.195317 h 0.002 c 0.739146,0.310269 1.271848,0.216297 1.863282,0.02734 0.0026,-7e-4 0.0052,-0.0014 0.0078,-0.002 1.081855,-0.318839 1.987635,-0.12345 2.847656,0.222656 0.01061,0.0041 0.02104,0.0087 0.03125,0.01367 0.559143,0.283829 0.934536,0.682667 1.009766,1.169922 0.07523,0.487255 -0.154441,0.953083 -0.519531,1.359375 -0.591548,0.68669 -1.163712,1.046532 -1.796875,1.632812 -0.120498,1.009137 -0.04874,2.041112 -0.566407,3.119141 -0.0085,0.01764 -0.01828,0.03461 -0.0293,0.05078 -0.349286,0.508467 -0.839546,0.816173 -1.363282,0.751953 -0.517781,-0.06349 -0.977459,-0.399348 -1.507812,-0.884765 -0.585158,-0.458635 -0.80549,-0.978647 -1.023438,-1.451172 -0.21716,-0.470818 -0.457887,-0.938024 -1.146484,-1.542969 L 39.437806,68.085819 39.875,67.44341 c 2.143275,1.100718 4.080453,2.116948 6.218752,3.228469 0.02739,0.01449 0.05296,0.03219 0.07617,0.05273 0.797863,0.694002 1.129148,1.32312 1.359375,1.822266 0.230226,0.499146 0.348577,0.825219 0.79881,1.173862 0.0088,0.0068 0.01719,0.01398 0.02539,0.02148 0.49277,0.452907 0.874041,0.6669 1.089843,0.69336 0.206941,0.02538 0.355844,-0.05735 0.59961,-0.400391 0.418483,-0.896062 0.343465,-1.837427 0.501953,-2.984375 0.01219,-0.0872 0.05349,-0.167725 0.117187,-0.228515 0.741622,-0.712292 1.312258,-1.04686 1.857422,-1.681641 0.0019,-0.002 0.0039,-0.004 0.0059,-0.0059 0.275975,-0.307122 0.354125,-0.550369 0.328125,-0.71875 -0.02574,-0.166715 -0.165403,-0.369799 -0.585938,-0.585938 -0.775941,-0.309593 -1.425099,-0.450408 -2.310547,-0.189453 l 0.0078,-0.0039 c -0.665966,0.212774 -1.472655,0.339185 -2.404297,-0.05273 -0.0046,-0.0012 -0.0092,-0.0025 -0.01367,-0.0039 L 40.875,64.5 Z"
       id="path47"
       sodipodi:nodetypes="ccssccccccccssccscccccsccssccccsccsccccccccccsccccscscccccscsscccccsccccccc" /></g></g>
</svg>
