<?xml version="1.0" encoding="UTF-8" standalone="no"?>
<!-- Created with Inkscape (http://www.inkscape.org/) -->

<svg
   width="1008"
   height="1680"
   viewBox="0 0 63 105"
   version="1.1"
   id="svg5"
   xml:space="preserve"
   inkscape:version="1.3.2 (091e20e, 2023-11-25)"
   sodipodi:docname="2623-biohazard-symbol.svg"
   xmlns:inkscape="http://www.inkscape.org/namespaces/inkscape"
   xmlns:sodipodi="http://sodipodi.sourceforge.net/DTD/sodipodi-0.dtd"
   xmlns="http://www.w3.org/2000/svg"
   xmlns:svg="http://www.w3.org/2000/svg">
  <sodipodi:namedview
   id="namedview7"
   pagecolor="#ffffff"
   bordercolor="#666666"
   borderopacity="1.0"
   inkscape:showpageshadow="2"
   inkscape:pageopacity="0.0"
   inkscape:pagecheckerboard="0"
   inkscape:deskcolor="#d1d1d1"
   inkscape:document-units="px"
   showgrid="false"
   inkscape:zoom="0.25264398"
   inkscape:cx="378.00228"
   inkscape:cy="376.02321"
   inkscape:window-width="1312"
   inkscape:window-height="749"
   inkscape:window-x="0"
   inkscape:window-y="25"
   inkscape:window-maximized="0"
   inkscape:current-layer="layer1"
   showguides="true"
   inkscape:lockguides="false">
    <inkscape:grid
   type="xygrid"
   id="grid1382"
   spacingx="0.125"
   spacingy="0.125"
   empspacing="12"
   originx="0"
   originy="0"
   units="px"
   visible="false" />
    <sodipodi:guide
   position="0,21"
   orientation="0,1"
   id="guide4"
   inkscape:locked="false"
   inkscape:label="baseline"
   inkscape:color="rgb(0,134,229)" />
    <sodipodi:guide
   position="0,24"
   orientation="0,-1"
   id="guide5"
   inkscape:locked="false" />
    <sodipodi:guide
   position="0,27"
   orientation="0,-1"
   id="guide6"
   inkscape:locked="false" />
    <sodipodi:guide
   position="0,87"
   orientation="0,1"
   id="guide7"
   inkscape:locked="false"
   inkscape:label="capheight"
   inkscape:color="rgb(0,134,229)" />
    <sodipodi:guide
   position="0,84"
   orientation="0,1"
   id="guide8"
   inkscape:locked="false"
   inkscape:label="exaccentcenter"
   inkscape:color="rgb(0,134,229)" />
    <sodipodi:guide
   position="0,81"
   orientation="0,-1"
   id="guide9"
   inkscape:locked="false" />
    <sodipodi:guide
   position="0,68.25"
   orientation="0,1"
   id="guide10"
   inkscape:locked="false"
   inkscape:label="exheight"
   inkscape:color="rgb(0,134,229)" />
    <sodipodi:guide
   position="0,65.25"
   orientation="0,-1"
   id="guide11"
   inkscape:locked="false" />
    <sodipodi:guide
   position="0,62.25"
   orientation="0,-1"
   id="guide12"
   inkscape:locked="false" />
    <sodipodi:guide
   position="0,66.5"
   orientation="0,1"
   id="guide13"
   inkscape:locked="false"
   inkscape:label=""
   inkscape:color="rgb(143,240,164)" />
    <sodipodi:guide
   position="0,22.75"
   orientation="0,1"
   id="guide14"
   inkscape:locked="false"
   inkscape:label=""
   inkscape:color="rgb(143,240,164)" />
    <sodipodi:guide
   position="0,85.25"
   orientation="0,1"
   id="guide1"
   inkscape:locked="false"
   inkscape:label=""
   inkscape:color="rgb(143,240,164)" />
    <sodipodi:guide
   position="0,54"
   orientation="0,1"
   id="guide2"
   inkscape:locked="false"
   inkscape:label="capcenter"
   inkscape:color="rgb(0,0,0)" />
    <sodipodi:guide
   position="31.5,105"
   orientation="1,0"
   id="guide1424"
   inkscape:locked="false" />
    <sodipodi:guide
   position="0,44.625"
   orientation="0,1"
   id="guide1428"
   stroke="#000000"
   color="#000000"
   inkscape:locked="false"
   inkscape:label="excenter/opcenter"
   inkscape:color="rgb(152,106,68)" />
    <sodipodi:guide
   position="0,2.25"
   orientation="0,1"
   id="guide586"
   inkscape:locked="false"
   inkscape:label="descender"
   inkscape:color="rgb(0,134,229)" />
    <sodipodi:guide
   position="0,5.25"
   orientation="0,-1"
   id="guide588"
   inkscape:locked="false" />
    <sodipodi:guide
   position="0,8.25"
   orientation="0,-1"
   id="guide590"
   inkscape:locked="false" />
    <sodipodi:guide
   position="0,4"
   orientation="0,1"
   id="guide592"
   inkscape:locked="false"
   inkscape:label=""
   inkscape:color="rgb(143,240,164)" />
    <sodipodi:guide
   position="0,88.25"
   orientation="0,1"
   id="guide706"
   inkscape:label=""
   inkscape:locked="false"
   inkscape:color="rgb(143,240,164)" />
    <sodipodi:guide
   position="0,82.25"
   orientation="0,1"
   id="guide708"
   inkscape:label=""
   inkscape:locked="false"
   inkscape:color="rgb(143,240,164)" />
    <sodipodi:guide
   position="0,69.5"
   orientation="0,1"
   id="guide710"
   inkscape:label=""
   inkscape:locked="false"
   inkscape:color="rgb(143,240,164)" />
    <sodipodi:guide
   position="0,63.5"
   orientation="0,1"
   id="guide712"
   inkscape:label=""
   inkscape:locked="false"
   inkscape:color="rgb(143,240,164)" />
    <sodipodi:guide
   position="0,25.75"
   orientation="0,1"
   id="guide714"
   inkscape:label=""
   inkscape:locked="false"
   inkscape:color="rgb(143,240,164)" />
    <sodipodi:guide
   position="0,19.75"
   orientation="0,1"
   id="guide716"
   inkscape:label=""
   inkscape:locked="false"
   inkscape:color="rgb(143,240,164)" />
    <sodipodi:guide
   position="0,7"
   orientation="0,1"
   id="guide718"
   inkscape:label=""
   inkscape:locked="false"
   inkscape:color="rgb(143,240,164)" />
    <sodipodi:guide
   position="0,1"
   orientation="0,1"
   id="guide720"
   inkscape:label=""
   inkscape:locked="false"
   inkscape:color="rgb(143,240,164)" />
    <sodipodi:guide
   position="0,96"
   orientation="0,1"
   id="guide856"
   inkscape:locked="false"
   inkscape:label="accentcenter"
   inkscape:color="rgb(0,134,229)" />
  </sodipodi:namedview>
  <defs
   id="defs2"><clipPath
     id="b"><circle
       cy="-15"
       r="9.5"
       id="circle1-0"
       cx="0" /><circle
       cy="-15"
       r="9.5"
       transform="rotate(120)"
       id="circle2"
       cx="0" /><circle
       cy="-15"
       r="9.5"
       transform="rotate(-120)"
       id="circle3"
       cx="0" /></clipPath><mask
     id="a"
     width="60"
     height="60"
     x="-30"
     y="-30"
     maskUnits="userSpaceOnUse"><path
       fill="#ffffff"
       d="M -27,-27 H 27 V 27 H -27 Z"
       id="path3-9" /><path
       d="m 2,-23 v -4 h -4 v 4 m 1.5,17 v 4 h 1 v -4"
       id="path4-8" /><circle
       cy="-15"
       r="10.5"
       id="circle4"
       cx="0" /><g
       transform="rotate(120)"
       id="g5"><path
         d="m 2,-23 v -4 h -4 v 4 m 1.5,17 v 4 h 1 v -4"
         id="path5-3" /><circle
         cy="-15"
         r="10.5"
         id="circle5"
         cx="0" /></g><g
       transform="rotate(-120)"
       id="g6"><path
         d="m 2,-23 v -4 h -4 v 4 m 1.5,17 v 4 h 1 v -4"
         id="path6" /><circle
         cy="-15"
         r="10.5"
         id="circle6"
         cx="0" /></g><circle
       r="3"
       id="circle7"
       cx="0"
       cy="0" /></mask></defs>
  <g
   inkscape:groupmode="layer"
   id="layer3"
   inkscape:label="Layer 3"
   style="display:inline;opacity:0.5;stroke-width:3.60000001;stroke-dasharray:none"
   transform="matrix(0.83333333,0,0,0.83333333,-157.97619,-173.09626)" />
  <g
   inkscape:groupmode="layer"
   id="layer2"
   inkscape:label="Layer 2"
   style="display:inline" />
  <g
   inkscape:label="Layer 1"
   inkscape:groupmode="layer"
   id="layer1"
   style="display:inline"><path
     class="st0"
     d="m 31.517087,40.084475 c 3.106885,0 5.989653,0.979964 8.345085,2.649861 -0.01336,0.01758 -0.02602,0.03516 -0.03937,0.05273 -0.32076,0.448234 -0.672317,0.865708 -1.050277,1.252421 -0.377924,0.382354 -0.769031,0.720693 -1.177716,1.023909 -0.114256,0.07467 -0.215364,0.16699 -0.307612,0.276817 -0.01758,0.02179 -0.03937,0.04851 -0.05273,0.07031 -1.656713,-1.037094 -3.616643,-1.639136 -5.717196,-1.639136 -2.082977,0 -4.029724,0.593288 -5.677648,1.612768 -0.08353,-0.118615 -0.188997,-0.224082 -0.312041,-0.316401 -0.448236,-0.32955 -0.856922,-0.685536 -1.23045,-1.067854 -0.377924,-0.386713 -0.725086,-0.804187 -1.037094,-1.248028 v 0 c -0.01336,-0.01758 -0.02672,-0.03515 -0.03937,-0.05273 2.346644,-1.647924 5.207439,-2.614705 8.296747,-2.614705 z m 14.391867,12.9373 c 0.05273,0.505398 0.0791,1.015121 0.0791,1.533667 0,5.791904 -3.401316,10.788409 -8.31872,13.099896 -0.01336,-0.02672 -0.02179,-0.05273 -0.03516,-0.0791 -0.241731,-0.48782 -0.439447,-0.993148 -0.597648,-1.511695 -0.1582,-0.514187 -0.272456,-1.045883 -0.347198,-1.590795 v 0 c -0.01336,-0.101104 -0.03937,-0.202147 -0.07468,-0.303254 -0.01336,-0.03094 -0.02179,-0.05696 -0.03516,-0.0879 3.410104,-1.814913 5.730381,-5.400795 5.730381,-9.53159 0,-0.206577 -0.0044,-0.413081 -0.01758,-0.619585 0.127474,-0.01758 0.259308,-0.04851 0.386713,-0.105474 0.479031,-0.206575 0.997542,-0.382352 1.542456,-0.522905 0.527335,-0.136263 1.045883,-0.224154 1.546851,-0.272457 0.04359,0.0044 0.09224,0 0.140623,-0.0092 z M 25.58456,67.760806 c -5.036055,-2.267544 -8.538442,-7.325571 -8.538442,-13.205364 0,-0.580069 0.03515,-1.151348 0.101039,-1.71384 0.04429,0.0084 0.08345,0.01336 0.127474,0.01758 0.544913,0.04429 1.081038,0.127474 1.599585,0.250519 0.505327,0.123046 1.019516,0.290036 1.542457,0.509757 v -0.0044 c 0.08353,0.03516 0.166988,0.06117 0.254878,0.0791 0.03094,0.0044 0.05696,0.0084 0.0879,0.01336 -0.02179,0.276816 -0.03094,0.558062 -0.03094,0.843737 0,4.227475 2.430139,7.883668 5.972076,9.654637 -0.04429,0.109896 -0.0791,0.224082 -0.09668,0.347127 -0.07474,0.527335 -0.197786,1.054672 -0.360346,1.582007 -0.158202,0.500968 -0.351557,0.988755 -0.57564,1.450173 -0.03516,0.05696 -0.06117,0.114256 -0.08353,0.175778 z"
     id="path1"
     style="stroke-width:0.0625" /><path
     class="st0"
     d="m 54.95276,71.131358 c -4.63616,5.54142 -12.717578,7.119032 -19.190622,3.383738 -1.713841,-0.988755 -3.164014,-2.263149 -4.319758,-3.7309 -4.605397,5.708408 -12.809862,7.37391 -19.362007,3.590277 -1.204082,-0.694325 -2.280725,-1.533667 -3.212351,-2.478478 0.540483,0.465815 1.133771,0.887681 1.775362,1.261211 5.567786,3.216748 12.691211,1.305156 15.907958,-4.262629 2.00827,-3.476021 2.017059,-7.562872 0.386714,-10.920242 l 2.113737,-1.30955 c 0.637231,0.707509 1.560034,1.15135 2.588338,1.15135 0.953598,0 1.819308,-0.382354 2.447717,-1.006332 l 0.193356,0.114255 2.113737,1.072249 c -2.680623,5.396403 -0.733876,12.023252 4.557059,15.077404 4.658131,2.685017 10.414877,1.744603 14.00076,-1.942353 z M 34.878851,55.610114 c 0.1582,-0.395501 0.24609,-0.830555 0.24609,-1.283183 0,-1.740207 -1.274395,-3.177197 -2.935502,-3.440865 v -2.456505 c 3.761661,-0.210934 7.351937,-2.25436 9.377785,-5.761142 3.190381,-5.528235 1.296366,-12.598927 -4.231868,-15.789307 -1.226056,-0.707509 -2.526817,-1.164533 -3.84955,-1.388651 7.444221,0.962388 13.196574,7.325571 13.196574,15.029065 0,2.078582 -0.417438,4.060485 -1.177716,5.866609 1.854464,0.268027 3.69135,0.883287 5.413978,1.876436 5.998443,3.462837 8.736193,10.410484 7.127821,16.808822 0.804186,-4.61858 -1.287579,-9.456886 -5.585364,-11.935362 -5.299723,-3.058547 -12.023251,-1.423807 -15.354255,3.616643 l -0.799793,-0.408649 v 0 z M 28.3311,55.434335 26.234941,56.730702 C 25.263765,55.236584 23.936636,53.940218 22.288713,52.98662 16.720928,49.769872 9.597501,51.681463 6.380755,57.249249 4.9525544,59.718938 4.5350803,62.496238 5.0008935,65.102155 4.0209281,61.37565 4.4515503,57.275616 6.5345613,53.672155 8.951515,49.488626 13.055946,46.891498 17.489959,46.249907 16.769267,44.483332 16.36937,42.545373 16.36937,40.519526 c 0,-7.795778 5.888581,-14.220483 13.460241,-15.059826 -3.357369,0.505328 -6.459859,2.478477 -8.287958,5.646886 -3.190379,5.528235 -1.296366,12.598927 4.231869,15.789307 1.577613,0.914048 3.287058,1.406228 4.987716,1.524879 v 2.535605 c -1.498512,0.386712 -2.61031,1.753392 -2.61031,3.374948 0,0.382354 0.06609,0.755847 0.180137,1.10301 z"
     id="path2"
     style="stroke-width:0.0625"
     sodipodi:nodetypes="cccccccccsccccccscccccscccccccccccccccscccccscc" /></g>
<style
   type="text/css"
   id="style1">.st0{fill-rule:evenodd;clip-rule:evenodd;}</style></svg>
