<?xml version="1.0" encoding="UTF-8" standalone="no"?>
<!-- Created with Inkscape (http://www.inkscape.org/) -->

<svg
   width="1008"
   height="1680"
   viewBox="0 0 63 105"
   version="1.1"
   id="svg5"
   xml:space="preserve"
   inkscape:version="1.3.2 (091e20e, 2023-11-25)"
   sodipodi:docname="269b-atom-symbol.svg"
   xmlns:inkscape="http://www.inkscape.org/namespaces/inkscape"
   xmlns:sodipodi="http://sodipodi.sourceforge.net/DTD/sodipodi-0.dtd"
   xmlns="http://www.w3.org/2000/svg"
   xmlns:svg="http://www.w3.org/2000/svg">
  <sodipodi:namedview
   id="namedview7"
   pagecolor="#ffffff"
   bordercolor="#666666"
   borderopacity="1.0"
   inkscape:showpageshadow="2"
   inkscape:pageopacity="0.0"
   inkscape:pagecheckerboard="0"
   inkscape:deskcolor="#d1d1d1"
   inkscape:document-units="px"
   showgrid="true"
   inkscape:zoom="0.45254834"
   inkscape:cx="385.59417"
   inkscape:cy="789.97086"
   inkscape:window-width="1392"
   inkscape:window-height="830"
   inkscape:window-x="0"
   inkscape:window-y="25"
   inkscape:window-maximized="0"
   inkscape:current-layer="layer1"
   showguides="true"
   inkscape:lockguides="false">
    <inkscape:grid
   type="xygrid"
   id="grid1382"
   spacingx="0.125"
   spacingy="0.125"
   empspacing="12"
   originx="0"
   originy="0"
   units="px"
   visible="true" />
    <sodipodi:guide
   position="0,21"
   orientation="0,1"
   id="guide4"
   inkscape:locked="false"
   inkscape:label="baseline"
   inkscape:color="rgb(0,134,229)" />
    <sodipodi:guide
   position="0,24"
   orientation="0,-1"
   id="guide5"
   inkscape:locked="false" />
    <sodipodi:guide
   position="0,27"
   orientation="0,-1"
   id="guide6"
   inkscape:locked="false" />
    <sodipodi:guide
   position="0,87"
   orientation="0,1"
   id="guide7"
   inkscape:locked="false"
   inkscape:label="capheight"
   inkscape:color="rgb(0,134,229)" />
    <sodipodi:guide
   position="0,84"
   orientation="0,1"
   id="guide8"
   inkscape:locked="false"
   inkscape:label="exaccentcenter"
   inkscape:color="rgb(0,134,229)" />
    <sodipodi:guide
   position="0,81"
   orientation="0,-1"
   id="guide9"
   inkscape:locked="false" />
    <sodipodi:guide
   position="0,68.25"
   orientation="0,1"
   id="guide10"
   inkscape:locked="false"
   inkscape:label="exheight"
   inkscape:color="rgb(0,134,229)" />
    <sodipodi:guide
   position="0,65.25"
   orientation="0,-1"
   id="guide11"
   inkscape:locked="false" />
    <sodipodi:guide
   position="0,62.25"
   orientation="0,-1"
   id="guide12"
   inkscape:locked="false" />
    <sodipodi:guide
   position="0,66.5"
   orientation="0,1"
   id="guide13"
   inkscape:locked="false"
   inkscape:label=""
   inkscape:color="rgb(143,240,164)" />
    <sodipodi:guide
   position="0,22.75"
   orientation="0,1"
   id="guide14"
   inkscape:locked="false"
   inkscape:label=""
   inkscape:color="rgb(143,240,164)" />
    <sodipodi:guide
   position="0,85.25"
   orientation="0,1"
   id="guide1"
   inkscape:locked="false"
   inkscape:label=""
   inkscape:color="rgb(143,240,164)" />
    <sodipodi:guide
   position="0,54"
   orientation="0,1"
   id="guide2"
   inkscape:locked="false"
   inkscape:label="capcenter"
   inkscape:color="rgb(0,0,0)" />
    <sodipodi:guide
   position="31.5,105"
   orientation="1,0"
   id="guide1424"
   inkscape:locked="false" />
    <sodipodi:guide
   position="0,44.625"
   orientation="0,1"
   id="guide1428"
   stroke="#000000"
   color="#000000"
   inkscape:locked="false"
   inkscape:label="excenter/opcenter"
   inkscape:color="rgb(152,106,68)" />
    <sodipodi:guide
   position="0,2.25"
   orientation="0,1"
   id="guide586"
   inkscape:locked="false"
   inkscape:label="descender"
   inkscape:color="rgb(0,134,229)" />
    <sodipodi:guide
   position="0,5.25"
   orientation="0,-1"
   id="guide588"
   inkscape:locked="false" />
    <sodipodi:guide
   position="0,8.25"
   orientation="0,-1"
   id="guide590"
   inkscape:locked="false" />
    <sodipodi:guide
   position="0,4"
   orientation="0,1"
   id="guide592"
   inkscape:locked="false"
   inkscape:label=""
   inkscape:color="rgb(143,240,164)" />
    <sodipodi:guide
   position="0,88.25"
   orientation="0,1"
   id="guide706"
   inkscape:label=""
   inkscape:locked="false"
   inkscape:color="rgb(143,240,164)" />
    <sodipodi:guide
   position="0,82.25"
   orientation="0,1"
   id="guide708"
   inkscape:label=""
   inkscape:locked="false"
   inkscape:color="rgb(143,240,164)" />
    <sodipodi:guide
   position="0,69.5"
   orientation="0,1"
   id="guide710"
   inkscape:label=""
   inkscape:locked="false"
   inkscape:color="rgb(143,240,164)" />
    <sodipodi:guide
   position="0,63.5"
   orientation="0,1"
   id="guide712"
   inkscape:label=""
   inkscape:locked="false"
   inkscape:color="rgb(143,240,164)" />
    <sodipodi:guide
   position="0,25.75"
   orientation="0,1"
   id="guide714"
   inkscape:label=""
   inkscape:locked="false"
   inkscape:color="rgb(143,240,164)" />
    <sodipodi:guide
   position="0,19.75"
   orientation="0,1"
   id="guide716"
   inkscape:label=""
   inkscape:locked="false"
   inkscape:color="rgb(143,240,164)" />
    <sodipodi:guide
   position="0,7"
   orientation="0,1"
   id="guide718"
   inkscape:label=""
   inkscape:locked="false"
   inkscape:color="rgb(143,240,164)" />
    <sodipodi:guide
   position="0,1"
   orientation="0,1"
   id="guide720"
   inkscape:label=""
   inkscape:locked="false"
   inkscape:color="rgb(143,240,164)" />
    <sodipodi:guide
   position="0,96"
   orientation="0,1"
   id="guide856"
   inkscape:locked="false"
   inkscape:label="accentcenter"
   inkscape:color="rgb(0,134,229)" />
  </sodipodi:namedview>
  <defs
   id="defs2" />
  <g
   inkscape:groupmode="layer"
   id="layer3"
   inkscape:label="Layer 3"
   style="display:inline;opacity:0.5;stroke-width:3.60000001;stroke-dasharray:none"
   transform="matrix(0.83333333,0,0,0.83333333,-157.97619,-173.09626)" />
  <g
   inkscape:groupmode="layer"
   id="layer2"
   inkscape:label="Layer 2"
   style="display:inline" />
  <g
   inkscape:label="Layer 1"
   inkscape:groupmode="layer"
   id="layer1"
   style="display:inline"><path
     id="path1"
     style="fill:none;stroke:#1578d2;stroke-width:1.5;stroke-linecap:round;stroke-linejoin:round"
     d="m 34.5,51 a 3,3 0 0 1 -3,3 3,3 0 0 1 -3,-3 3,3 0 0 1 3,-3 3,3 0 0 1 3,3 z" /><path
     style="color:#000000;fill:#1578d2;stroke-linecap:round;stroke-linejoin:round;-inkscape-stroke:none"
     d="m 31.5,20.25 c -1.440863,0 -2.606267,1.105448 -3.564453,2.726562 -0.958186,1.621115 -1.777296,3.870903 -2.466797,6.628907 C 24.089748,35.121477 23.25,42.665071 23.25,51 c 0,8.334929 0.839748,15.878523 2.21875,21.394531 0.689501,2.758004 1.508611,5.007792 2.466797,6.628906 C 28.893733,80.644552 30.059137,81.75 31.5,81.75 c 1.440863,0 2.606267,-1.105448 3.564453,-2.726563 0.958186,-1.621114 1.777296,-3.870902 2.466797,-6.628906 C 38.910252,66.878523 39.75,59.334929 39.75,51 39.75,42.665071 38.910252,35.121477 37.53125,29.605469 36.841749,26.847465 36.022639,24.597677 35.064453,22.976562 34.106267,21.355448 32.940863,20.25 31.5,20.25 Z m 0,1.5 c 0.630203,0 1.43705,0.573233 2.273437,1.988281 0.836388,1.415048 1.635004,3.559546 2.302735,6.230469 C 37.411633,35.310595 38.25,42.766403 38.25,51 c 0,8.233597 -0.838367,15.689405 -2.173828,21.03125 -0.667731,2.670923 -1.466347,4.815421 -2.302735,6.230469 C 32.93705,79.676767 32.130203,80.25 31.5,80.25 30.869797,80.25 30.06295,79.676767 29.226562,78.261719 28.390175,76.846671 27.591559,74.702173 26.923828,72.03125 25.588367,66.689405 24.75,59.233597 24.75,51 c 0,-8.233597 0.838367,-15.689405 2.173828,-21.03125 0.667731,-2.670923 1.466347,-4.815421 2.302734,-6.230469 C 30.06295,22.323233 30.869797,21.75 31.5,21.75 Z"
     id="ellipse2" /><path
     style="color:#000000;fill:#1578d2;stroke-linecap:round;stroke-linejoin:round;-inkscape-stroke:none"
     d="m 59.917969,-32.529297 c -1.440863,0 -2.60822,1.103495 -3.566407,2.72461 -0.958186,1.621114 -1.775342,3.870902 -2.464843,6.628906 -1.379002,5.516008 -2.21875,13.061555 -2.21875,21.3964841 0,8.3349292 0.839748,15.8785229 2.21875,21.3945309 0.689501,2.758005 1.506657,5.007792 2.464843,6.628907 0.958187,1.621114 2.125544,2.726562 3.566407,2.726562 1.440862,0 2.606267,-1.105448 3.564453,-2.726562 0.958186,-1.621115 1.775343,-3.870902 2.464844,-6.628907 1.379002,-5.516008 2.220703,-13.0596017 2.220703,-21.3945309 0,-8.3349291 -0.841701,-15.8804761 -2.220703,-21.3964841 -0.689501,-2.758004 -1.506658,-5.007792 -2.464844,-6.628906 -0.958186,-1.621115 -2.123591,-2.72461 -3.564453,-2.72461 z m 0,1.5 c 0.630203,0 1.43705,0.573233 2.273437,1.988281 0.836388,1.415048 1.633051,3.559547 2.300781,6.230469 1.335462,5.341845 2.175782,12.797653 2.175782,21.0312501 0,8.2335968 -0.84032,15.6894049 -2.175782,21.0312499 -0.66773,2.670923 -1.464393,4.813468 -2.300781,6.228516 -0.836387,1.415048 -1.643234,1.990234 -2.273437,1.990234 -0.630203,0 -1.43705,-0.575186 -2.273438,-1.990234 -0.836387,-1.415048 -1.635003,-3.557593 -2.302734,-6.228516 -1.335461,-5.341845 -2.173828,-12.7976531 -2.173828,-21.0312499 0,-8.2335971 0.838367,-15.6894051 2.173828,-21.0312501 0.667731,-2.670922 1.466347,-4.815421 2.302734,-6.230469 0.836388,-1.415048 1.643235,-1.988281 2.273438,-1.988281 z"
     id="ellipse3"
     transform="rotate(60)" /><path
     style="color:#000000;fill:#1578d2;stroke-linecap:round;stroke-linejoin:round;-inkscape-stroke:none"
     d="m 28.417969,-83.529297 c -1.440863,0 -2.60822,1.103495 -3.566407,2.72461 -0.958186,1.621114 -1.775342,3.870902 -2.464843,6.628906 -1.379002,5.516008 -2.21875,13.061555 -2.21875,21.396484 0,8.334929 0.839748,15.878523 2.21875,21.394531 0.689501,2.758005 1.506657,5.007792 2.464843,6.628907 0.958187,1.621114 2.125544,2.726562 3.566407,2.726562 1.440862,0 2.606267,-1.105448 3.564453,-2.726562 0.958186,-1.621115 1.775343,-3.870902 2.464844,-6.628907 1.379002,-5.516008 2.220703,-13.059602 2.220703,-21.394531 0,-8.334929 -0.841701,-15.880476 -2.220703,-21.396484 -0.689501,-2.758004 -1.506658,-5.007792 -2.464844,-6.628906 -0.958186,-1.621115 -2.123591,-2.72461 -3.564453,-2.72461 z m 0,1.5 c 0.630203,0 1.43705,0.573233 2.273437,1.988281 0.836388,1.415048 1.633051,3.559547 2.300781,6.230469 1.335462,5.341845 2.175782,12.797653 2.175782,21.03125 0,8.233597 -0.84032,15.689405 -2.175782,21.03125 -0.66773,2.670923 -1.464393,4.813468 -2.300781,6.228516 -0.836387,1.415048 -1.643234,1.990234 -2.273437,1.990234 -0.630203,0 -1.43705,-0.575186 -2.273438,-1.990234 -0.836387,-1.415048 -1.635003,-3.557593 -2.302734,-6.228516 -1.335461,-5.341845 -2.173828,-12.797653 -2.173828,-21.03125 0,-8.233597 0.838367,-15.689405 2.173828,-21.03125 0.667731,-2.670922 1.466347,-4.815421 2.302734,-6.230469 0.836388,-1.415048 1.643235,-1.988281 2.273438,-1.988281 z"
     id="ellipse4"
     transform="rotate(120)" /></g>
</svg>
